<svg width="87" height="29" viewBox="0 0 87 29" fill="none" xmlns="http://www.w3.org/2000/svg">
<path d="M0 2.33203C0 1.22746 0.895431 0.332031 2 0.332031H85.0016C86.1061 0.332031 87.0016 1.22746 87.0016 2.33203V22.332H2C0.895435 22.332 0 21.4366 0 20.332V2.33203Z" fill="#2F54EB"/>
<path d="M14.1406 12.6191H15.2656C15.207 13.1582 15.0527 13.6406 14.8027 14.0664C14.5527 14.4922 14.1992 14.8301 13.7422 15.0801C13.2852 15.3262 12.7148 15.4492 12.0312 15.4492C11.5312 15.4492 11.0762 15.3555 10.666 15.168C10.2598 14.9805 9.91016 14.7148 9.61719 14.3711C9.32422 14.0234 9.09766 13.6074 8.9375 13.123C8.78125 12.6348 8.70312 12.0918 8.70312 11.4941V10.6445C8.70312 10.0469 8.78125 9.50586 8.9375 9.02148C9.09766 8.5332 9.32617 8.11523 9.62305 7.76758C9.92383 7.41992 10.2852 7.15234 10.707 6.96484C11.1289 6.77734 11.6035 6.68359 12.1309 6.68359C12.7754 6.68359 13.3203 6.80469 13.7656 7.04688C14.2109 7.28906 14.5566 7.625 14.8027 8.05469C15.0527 8.48047 15.207 8.97461 15.2656 9.53711H14.1406C14.0859 9.13867 13.9844 8.79688 13.8359 8.51172C13.6875 8.22266 13.4766 8 13.2031 7.84375C12.9297 7.6875 12.5723 7.60938 12.1309 7.60938C11.752 7.60938 11.418 7.68164 11.1289 7.82617C10.8438 7.9707 10.6035 8.17578 10.4082 8.44141C10.2168 8.70703 10.0723 9.02539 9.97461 9.39648C9.87695 9.76758 9.82812 10.1797 9.82812 10.6328V11.4941C9.82812 11.9121 9.87109 12.3047 9.95703 12.6719C10.0469 13.0391 10.1816 13.3613 10.3613 13.6387C10.541 13.916 10.7695 14.1348 11.0469 14.2949C11.3242 14.4512 11.6523 14.5293 12.0312 14.5293C12.5117 14.5293 12.8945 14.4531 13.1797 14.3008C13.4648 14.1484 13.6797 13.9297 13.8242 13.6445C13.9727 13.3594 14.0781 13.0176 14.1406 12.6191ZM16.3555 12.2324V12.0977C16.3555 11.6406 16.4219 11.2168 16.5547 10.8262C16.6875 10.4316 16.8789 10.0898 17.1289 9.80078C17.3789 9.50781 17.6816 9.28125 18.0371 9.12109C18.3926 8.95703 18.791 8.875 19.2324 8.875C19.6777 8.875 20.0781 8.95703 20.4336 9.12109C20.793 9.28125 21.0977 9.50781 21.3477 9.80078C21.6016 10.0898 21.7949 10.4316 21.9277 10.8262C22.0605 11.2168 22.127 11.6406 22.127 12.0977V12.2324C22.127 12.6895 22.0605 13.1133 21.9277 13.5039C21.7949 13.8945 21.6016 14.2363 21.3477 14.5293C21.0977 14.8184 20.7949 15.0449 20.4395 15.209C20.0879 15.3691 19.6895 15.4492 19.2441 15.4492C18.7988 15.4492 18.3984 15.3691 18.043 15.209C17.6875 15.0449 17.3828 14.8184 17.1289 14.5293C16.8789 14.2363 16.6875 13.8945 16.5547 13.5039C16.4219 13.1133 16.3555 12.6895 16.3555 12.2324ZM17.4395 12.0977V12.2324C17.4395 12.5488 17.4766 12.8477 17.5508 13.1289C17.625 13.4062 17.7363 13.6523 17.8848 13.8672C18.0371 14.082 18.2266 14.252 18.4531 14.377C18.6797 14.498 18.9434 14.5586 19.2441 14.5586C19.541 14.5586 19.8008 14.498 20.0234 14.377C20.25 14.252 20.4375 14.082 20.5859 13.8672C20.7344 13.6523 20.8457 13.4062 20.9199 13.1289C20.998 12.8477 21.0371 12.5488 21.0371 12.2324V12.0977C21.0371 11.7852 20.998 11.4902 20.9199 11.2129C20.8457 10.9316 20.7324 10.6836 20.5801 10.4688C20.4316 10.25 20.2441 10.0781 20.0176 9.95312C19.7949 9.82812 19.5332 9.76562 19.2324 9.76562C18.9355 9.76562 18.6738 9.82812 18.4473 9.95312C18.2246 10.0781 18.0371 10.25 17.8848 10.4688C17.7363 10.6836 17.625 10.9316 17.5508 11.2129C17.4766 11.4902 17.4395 11.7852 17.4395 12.0977ZM24.5645 10.252V15.332H23.4746V8.99219H24.5059L24.5645 10.252ZM24.3418 11.9219L23.8379 11.9043C23.8418 11.4707 23.8984 11.0703 24.0078 10.7031C24.1172 10.332 24.2793 10.0098 24.4941 9.73633C24.709 9.46289 24.9766 9.25195 25.2969 9.10352C25.6172 8.95117 25.9883 8.875 26.4102 8.875C26.707 8.875 26.9805 8.91797 27.2305 9.00391C27.4805 9.08594 27.6973 9.2168 27.8809 9.39648C28.0645 9.57617 28.207 9.80664 28.3086 10.0879C28.4102 10.3691 28.4609 10.709 28.4609 11.1074V15.332H27.377V11.1602C27.377 10.8281 27.3203 10.5625 27.207 10.3633C27.0977 10.1641 26.9414 10.0195 26.7383 9.92969C26.5352 9.83594 26.2969 9.78906 26.0234 9.78906C25.7031 9.78906 25.4355 9.8457 25.2207 9.95898C25.0059 10.0723 24.834 10.2285 24.7051 10.4277C24.5762 10.627 24.4824 10.8555 24.4238 11.1133C24.3691 11.3672 24.3418 11.6367 24.3418 11.9219ZM28.4492 11.3242L27.7227 11.5469C27.7266 11.1992 27.7832 10.8652 27.8926 10.5449C28.0059 10.2246 28.168 9.93945 28.3789 9.68945C28.5938 9.43945 28.8574 9.24219 29.1699 9.09766C29.4824 8.94922 29.8398 8.875 30.2422 8.875C30.582 8.875 30.8828 8.91992 31.1445 9.00977C31.4102 9.09961 31.6328 9.23828 31.8125 9.42578C31.9961 9.60938 32.1348 9.8457 32.2285 10.1348C32.3223 10.4238 32.3691 10.7676 32.3691 11.166V15.332H31.2793V11.1543C31.2793 10.7988 31.2227 10.5234 31.1094 10.3281C31 10.1289 30.8438 9.99023 30.6406 9.91211C30.4414 9.83008 30.2031 9.78906 29.9258 9.78906C29.6875 9.78906 29.4766 9.83008 29.293 9.91211C29.1094 9.99414 28.9551 10.1074 28.8301 10.252C28.7051 10.3926 28.6094 10.5547 28.543 10.7383C28.4805 10.9219 28.4492 11.1172 28.4492 11.3242ZM35.1875 8.99219V15.332H34.0977V8.99219H35.1875ZM34.0156 7.31055C34.0156 7.13477 34.0684 6.98633 34.1738 6.86523C34.2832 6.74414 34.4434 6.68359 34.6543 6.68359C34.8613 6.68359 35.0195 6.74414 35.1289 6.86523C35.2422 6.98633 35.2988 7.13477 35.2988 7.31055C35.2988 7.47852 35.2422 7.62305 35.1289 7.74414C35.0195 7.86133 34.8613 7.91992 34.6543 7.91992C34.4434 7.91992 34.2832 7.86133 34.1738 7.74414C34.0684 7.62305 34.0156 7.47852 34.0156 7.31055ZM38.0117 10.3457V15.332H36.9277V8.99219H37.9531L38.0117 10.3457ZM37.7539 11.9219L37.3027 11.9043C37.3066 11.4707 37.3711 11.0703 37.4961 10.7031C37.6211 10.332 37.7969 10.0098 38.0234 9.73633C38.25 9.46289 38.5195 9.25195 38.832 9.10352C39.1484 8.95117 39.498 8.875 39.8809 8.875C40.1934 8.875 40.4746 8.91797 40.7246 9.00391C40.9746 9.08594 41.1875 9.21875 41.3633 9.40234C41.543 9.58594 41.6797 9.82422 41.7734 10.1172C41.8672 10.4062 41.9141 10.7598 41.9141 11.1777V15.332H40.8242V11.166C40.8242 10.834 40.7754 10.5684 40.6777 10.3691C40.5801 10.166 40.4375 10.0195 40.25 9.92969C40.0625 9.83594 39.832 9.78906 39.5586 9.78906C39.2891 9.78906 39.043 9.8457 38.8203 9.95898C38.6016 10.0723 38.4121 10.2285 38.252 10.4277C38.0957 10.627 37.9727 10.8555 37.8828 11.1133C37.7969 11.3672 37.7539 11.6367 37.7539 11.9219ZM47.668 8.99219H48.6523V15.1973C48.6523 15.7559 48.5391 16.2324 48.3125 16.627C48.0859 17.0215 47.7695 17.3203 47.3633 17.5234C46.9609 17.7305 46.4961 17.834 45.9688 17.834C45.75 17.834 45.4922 17.7988 45.1953 17.7285C44.9023 17.6621 44.6133 17.5469 44.3281 17.3828C44.0469 17.2227 43.8105 17.0059 43.6191 16.7324L44.1875 16.0879C44.4531 16.4082 44.7305 16.6309 45.0195 16.7559C45.3125 16.8809 45.6016 16.9434 45.8867 16.9434C46.2305 16.9434 46.5273 16.8789 46.7773 16.75C47.0273 16.6211 47.2207 16.4297 47.3574 16.1758C47.498 15.9258 47.5684 15.6172 47.5684 15.25V10.3867L47.668 8.99219ZM43.3027 12.2324V12.1094C43.3027 11.625 43.3594 11.1855 43.4727 10.791C43.5898 10.3926 43.7559 10.0508 43.9707 9.76562C44.1895 9.48047 44.4531 9.26172 44.7617 9.10938C45.0703 8.95312 45.418 8.875 45.8047 8.875C46.2031 8.875 46.5508 8.94531 46.8477 9.08594C47.1484 9.22266 47.4023 9.42383 47.6094 9.68945C47.8203 9.95117 47.9863 10.2676 48.1074 10.6387C48.2285 11.0098 48.3125 11.4297 48.3594 11.8984V12.4375C48.3164 12.9023 48.2324 13.3203 48.1074 13.6914C47.9863 14.0625 47.8203 14.3789 47.6094 14.6406C47.4023 14.9023 47.1484 15.1035 46.8477 15.2441C46.5469 15.3809 46.1953 15.4492 45.793 15.4492C45.4141 15.4492 45.0703 15.3691 44.7617 15.209C44.457 15.0488 44.1953 14.8242 43.9766 14.5352C43.7578 14.2461 43.5898 13.9062 43.4727 13.5156C43.3594 13.1211 43.3027 12.6934 43.3027 12.2324ZM44.3867 12.1094V12.2324C44.3867 12.5488 44.418 12.8457 44.4805 13.123C44.5469 13.4004 44.6465 13.6445 44.7793 13.8555C44.916 14.0664 45.0898 14.2324 45.3008 14.3535C45.5117 14.4707 45.7637 14.5293 46.0566 14.5293C46.416 14.5293 46.7129 14.4531 46.9473 14.3008C47.1816 14.1484 47.3672 13.9473 47.5039 13.6973C47.6445 13.4473 47.7539 13.1758 47.832 12.8828V11.4707C47.7891 11.2559 47.7227 11.0488 47.6328 10.8496C47.5469 10.6465 47.4336 10.4668 47.293 10.3105C47.1562 10.1504 46.9863 10.0234 46.7832 9.92969C46.5801 9.83594 46.3418 9.78906 46.0684 9.78906C45.7715 9.78906 45.5156 9.85156 45.3008 9.97656C45.0898 10.0977 44.916 10.2656 44.7793 10.4805C44.6465 10.6914 44.5469 10.9375 44.4805 11.2188C44.418 11.4961 44.3867 11.793 44.3867 12.1094ZM56.9668 13.6504C56.9668 13.4941 56.9316 13.3496 56.8613 13.2168C56.7949 13.0801 56.6562 12.957 56.4453 12.8477C56.2383 12.7344 55.9258 12.6367 55.5078 12.5547C55.1562 12.4805 54.8379 12.3926 54.5527 12.291C54.2715 12.1895 54.0312 12.0664 53.832 11.9219C53.6367 11.7773 53.4863 11.6074 53.3809 11.4121C53.2754 11.2168 53.2227 10.9883 53.2227 10.7266C53.2227 10.4766 53.2773 10.2402 53.3867 10.0176C53.5 9.79492 53.6582 9.59766 53.8613 9.42578C54.0684 9.25391 54.3164 9.11914 54.6055 9.02148C54.8945 8.92383 55.2168 8.875 55.5723 8.875C56.0801 8.875 56.5137 8.96484 56.873 9.14453C57.2324 9.32422 57.5078 9.56445 57.6992 9.86523C57.8906 10.1621 57.9863 10.4922 57.9863 10.8555H56.9023C56.9023 10.6797 56.8496 10.5098 56.7441 10.3457C56.6426 10.1777 56.4922 10.0391 56.293 9.92969C56.0977 9.82031 55.8574 9.76562 55.5723 9.76562C55.2715 9.76562 55.0273 9.8125 54.8398 9.90625C54.6562 9.99609 54.5215 10.1113 54.4355 10.252C54.3535 10.3926 54.3125 10.541 54.3125 10.6973C54.3125 10.8145 54.332 10.9199 54.3711 11.0137C54.4141 11.1035 54.4883 11.1875 54.5938 11.2656C54.6992 11.3398 54.8477 11.4102 55.0391 11.4766C55.2305 11.543 55.4746 11.6094 55.7715 11.6758C56.291 11.793 56.7188 11.9336 57.0547 12.0977C57.3906 12.2617 57.6406 12.4629 57.8047 12.7012C57.9688 12.9395 58.0508 13.2285 58.0508 13.5684C58.0508 13.8457 57.9922 14.0996 57.875 14.3301C57.7617 14.5605 57.5957 14.7598 57.377 14.9277C57.1621 15.0918 56.9043 15.2207 56.6035 15.3145C56.3066 15.4043 55.9727 15.4492 55.6016 15.4492C55.043 15.4492 54.5703 15.3496 54.1836 15.1504C53.7969 14.9512 53.5039 14.6934 53.3047 14.377C53.1055 14.0605 53.0059 13.7266 53.0059 13.375H54.0957C54.1113 13.6719 54.1973 13.9082 54.3535 14.084C54.5098 14.2559 54.7012 14.3789 54.9277 14.4531C55.1543 14.5234 55.3789 14.5586 55.6016 14.5586C55.8984 14.5586 56.1465 14.5195 56.3457 14.4414C56.5488 14.3633 56.7031 14.2559 56.8086 14.1191C56.9141 13.9824 56.9668 13.8262 56.9668 13.6504ZM59.1875 12.2324V12.0977C59.1875 11.6406 59.2539 11.2168 59.3867 10.8262C59.5195 10.4316 59.7109 10.0898 59.9609 9.80078C60.2109 9.50781 60.5137 9.28125 60.8691 9.12109C61.2246 8.95703 61.623 8.875 62.0645 8.875C62.5098 8.875 62.9102 8.95703 63.2656 9.12109C63.625 9.28125 63.9297 9.50781 64.1797 9.80078C64.4336 10.0898 64.627 10.4316 64.7598 10.8262C64.8926 11.2168 64.959 11.6406 64.959 12.0977V12.2324C64.959 12.6895 64.8926 13.1133 64.7598 13.5039C64.627 13.8945 64.4336 14.2363 64.1797 14.5293C63.9297 14.8184 63.627 15.0449 63.2715 15.209C62.9199 15.3691 62.5215 15.4492 62.0762 15.4492C61.6309 15.4492 61.2305 15.3691 60.875 15.209C60.5195 15.0449 60.2148 14.8184 59.9609 14.5293C59.7109 14.2363 59.5195 13.8945 59.3867 13.5039C59.2539 13.1133 59.1875 12.6895 59.1875 12.2324ZM60.2715 12.0977V12.2324C60.2715 12.5488 60.3086 12.8477 60.3828 13.1289C60.457 13.4062 60.5684 13.6523 60.7168 13.8672C60.8691 14.082 61.0586 14.252 61.2852 14.377C61.5117 14.498 61.7754 14.5586 62.0762 14.5586C62.373 14.5586 62.6328 14.498 62.8555 14.377C63.082 14.252 63.2695 14.082 63.418 13.8672C63.5664 13.6523 63.6777 13.4062 63.752 13.1289C63.8301 12.8477 63.8691 12.5488 63.8691 12.2324V12.0977C63.8691 11.7852 63.8301 11.4902 63.752 11.2129C63.6777 10.9316 63.5645 10.6836 63.4121 10.4688C63.2637 10.25 63.0762 10.0781 62.8496 9.95312C62.627 9.82812 62.3652 9.76562 62.0645 9.76562C61.7676 9.76562 61.5059 9.82812 61.2793 9.95312C61.0566 10.0781 60.8691 10.25 60.7168 10.4688C60.5684 10.6836 60.457 10.9316 60.3828 11.2129C60.3086 11.4902 60.2715 11.7852 60.2715 12.0977ZM66.0312 12.2324V12.0977C66.0312 11.6406 66.0977 11.2168 66.2305 10.8262C66.3633 10.4316 66.5547 10.0898 66.8047 9.80078C67.0547 9.50781 67.3574 9.28125 67.7129 9.12109C68.0684 8.95703 68.4668 8.875 68.9082 8.875C69.3535 8.875 69.7539 8.95703 70.1094 9.12109C70.4688 9.28125 70.7734 9.50781 71.0234 9.80078C71.2773 10.0898 71.4707 10.4316 71.6035 10.8262C71.7363 11.2168 71.8027 11.6406 71.8027 12.0977V12.2324C71.8027 12.6895 71.7363 13.1133 71.6035 13.5039C71.4707 13.8945 71.2773 14.2363 71.0234 14.5293C70.7734 14.8184 70.4707 15.0449 70.1152 15.209C69.7637 15.3691 69.3652 15.4492 68.9199 15.4492C68.4746 15.4492 68.0742 15.3691 67.7188 15.209C67.3633 15.0449 67.0586 14.8184 66.8047 14.5293C66.5547 14.2363 66.3633 13.8945 66.2305 13.5039C66.0977 13.1133 66.0312 12.6895 66.0312 12.2324ZM67.1152 12.0977V12.2324C67.1152 12.5488 67.1523 12.8477 67.2266 13.1289C67.3008 13.4062 67.4121 13.6523 67.5605 13.8672C67.7129 14.082 67.9023 14.252 68.1289 14.377C68.3555 14.498 68.6191 14.5586 68.9199 14.5586C69.2168 14.5586 69.4766 14.498 69.6992 14.377C69.9258 14.252 70.1133 14.082 70.2617 13.8672C70.4102 13.6523 70.5215 13.4062 70.5957 13.1289C70.6738 12.8477 70.7129 12.5488 70.7129 12.2324V12.0977C70.7129 11.7852 70.6738 11.4902 70.5957 11.2129C70.5215 10.9316 70.4082 10.6836 70.2559 10.4688C70.1074 10.25 69.9199 10.0781 69.6934 9.95312C69.4707 9.82812 69.209 9.76562 68.9082 9.76562C68.6113 9.76562 68.3496 9.82812 68.123 9.95312C67.9004 10.0781 67.7129 10.25 67.5605 10.4688C67.4121 10.6836 67.3008 10.9316 67.2266 11.2129C67.1523 11.4902 67.1152 11.7852 67.1152 12.0977ZM74.2461 10.3457V15.332H73.1621V8.99219H74.1875L74.2461 10.3457ZM73.9883 11.9219L73.5371 11.9043C73.541 11.4707 73.6055 11.0703 73.7305 10.7031C73.8555 10.332 74.0312 10.0098 74.2578 9.73633C74.4844 9.46289 74.7539 9.25195 75.0664 9.10352C75.3828 8.95117 75.7324 8.875 76.1152 8.875C76.4277 8.875 76.709 8.91797 76.959 9.00391C77.209 9.08594 77.4219 9.21875 77.5977 9.40234C77.7773 9.58594 77.9141 9.82422 78.0078 10.1172C78.1016 10.4062 78.1484 10.7598 78.1484 11.1777V15.332H77.0586V11.166C77.0586 10.834 77.0098 10.5684 76.9121 10.3691C76.8145 10.166 76.6719 10.0195 76.4844 9.92969C76.2969 9.83594 76.0664 9.78906 75.793 9.78906C75.5234 9.78906 75.2773 9.8457 75.0547 9.95898C74.8359 10.0723 74.6465 10.2285 74.4863 10.4277C74.3301 10.627 74.207 10.8555 74.1172 11.1133C74.0312 11.3672 73.9883 11.6367 73.9883 11.9219Z" fill="white"/>
<path d="M87 22.331H79V28.331L87 22.331Z" fill="black" fill-opacity="0.25"/>
</svg>
