<svg width="80" height="80" viewBox="0 0 80 80" fill="none" xmlns="http://www.w3.org/2000/svg">
<g clipPath="url(#clip0_335_18872)">
<path d="M7.96902 70.8482C7.74517 70.8482 7.53049 70.7592 7.37221 70.601C7.21392 70.4427 7.125 70.228 7.125 70.0041V24.5628C7.125 24.0965 7.50278 23.7188 7.96902 23.7188C8.43525 23.7188 8.81303 24.0965 8.81303 24.5628V70.0041C8.81303 70.228 8.72411 70.4427 8.56583 70.601C8.40754 70.7592 8.19286 70.8482 7.96902 70.8482Z" fill="#2F54EB"/>
<path d="M78.656 2.01953H14.6064C14.3825 2.01953 14.1679 2.10845 14.0096 2.26674C13.8513 2.42502 13.7624 2.6397 13.7624 2.86355V17.1771H1.34402C1.12017 17.1771 0.905491 17.266 0.747207 17.4243C0.588923 17.5826 0.5 17.7972 0.5 18.0211L0.5 69.9116C0.5 74.0341 3.85058 77.3879 7.96888 77.3879C12.0872 77.3879 15.4378 74.0341 15.4378 69.9116L15.4504 3.70757H77.812V69.7841C77.812 73.0461 75.1616 75.6999 71.9038 75.6999H23.2913C22.8251 75.6999 22.4473 76.0776 22.4473 76.5439C22.4473 77.0101 22.8251 77.3879 23.2913 77.3879H71.9038C76.0924 77.3879 79.5 73.9769 79.5 69.7841V2.86355C79.5 2.6397 79.4111 2.42502 79.2528 2.26674C79.0945 2.10845 78.8798 2.01953 78.656 2.01953ZM13.7497 69.9116C13.7497 73.1032 11.1566 75.6999 7.96888 75.6999C4.78119 75.6999 2.18803 73.1033 2.18803 69.9116V18.8651H13.7624L13.7497 69.9116Z" fill="#2F54EB"/>
<path d="M42.5321 13.6785H22.2757C21.8094 13.6785 21.4316 13.3007 21.4316 12.8345C21.4316 12.3682 21.8094 11.9904 22.2757 11.9904H42.5321C42.9983 11.9904 43.3761 12.3682 43.3761 12.8345C43.3761 13.3007 42.9983 13.6785 42.5321 13.6785ZM42.5321 22.9731H22.2757C21.8094 22.9731 21.4316 22.5954 21.4316 22.1291C21.4316 21.6629 21.8094 21.2851 22.2757 21.2851H42.5321C42.9983 21.2851 43.3761 21.6629 43.3761 22.1291C43.3761 22.5954 42.9983 22.9731 42.5321 22.9731ZM42.5321 32.2676H22.2757C21.8094 32.2676 21.4316 31.8898 21.4316 31.4236C21.4316 30.9574 21.8094 30.5796 22.2757 30.5796H42.5321C42.9983 30.5796 43.3761 30.9574 43.3761 31.4236C43.3761 31.8898 42.9983 32.2676 42.5321 32.2676ZM42.5321 41.5623H22.2757C21.8094 41.5623 21.4316 41.1845 21.4316 40.7183C21.4316 40.252 21.8094 39.8742 22.2757 39.8742H42.5321C42.9983 39.8742 43.3761 40.252 43.3761 40.7183C43.3761 41.1845 42.9983 41.5623 42.5321 41.5623ZM70.9707 50.8569H22.2757C21.8094 50.8569 21.4316 50.4791 21.4316 50.0129C21.4316 49.5467 21.8094 49.1689 22.2757 49.1689H70.9707C71.1946 49.1689 71.4092 49.2578 71.5675 49.4161C71.7258 49.5744 71.8147 49.7891 71.8147 50.0129C71.8147 50.2368 71.7258 50.4514 71.5675 50.6097C71.4092 50.768 71.1946 50.8569 70.9707 50.8569ZM70.9707 60.1512H22.2757C21.8094 60.1512 21.4316 59.7735 21.4316 59.3072C21.4316 58.841 21.8094 58.4632 22.2757 58.4632H70.9707C71.1946 58.4632 71.4092 58.5521 71.5675 58.7104C71.7258 58.8687 71.8147 59.0834 71.8147 59.3072C71.8147 59.5311 71.7258 59.7458 71.5675 59.904C71.4092 60.0623 71.1946 60.1512 70.9707 60.1512ZM70.9707 69.4459H22.2757C21.8094 69.4459 21.4316 69.0681 21.4316 68.6019C21.4316 68.1356 21.8094 67.7579 22.2757 67.7579H70.9707C71.1946 67.7579 71.4092 67.8468 71.5675 68.0051C71.7258 68.1634 71.8147 68.378 71.8147 68.6019C71.8147 68.8257 71.7258 69.0404 71.5675 69.1987C71.4092 69.357 71.1946 69.4459 70.9707 69.4459Z" fill="#2F54EB"/>
<path d="M70.9711 44.2854H51.0618C50.8379 44.2854 50.6233 44.1965 50.465 44.0382C50.3067 43.88 50.2178 43.6653 50.2178 43.4414V35.5647C50.2178 35.3409 50.3067 35.1262 50.465 34.9679C50.6233 34.8096 50.8379 34.7207 51.0618 34.7207H70.971C71.1948 34.7207 71.4095 34.8096 71.5678 34.9679C71.7261 35.1262 71.815 35.3409 71.815 35.5647V43.4414C71.815 43.5523 71.7932 43.662 71.7508 43.7644C71.7084 43.8668 71.6462 43.9599 71.5679 44.0382C71.4895 44.1166 71.3965 44.1788 71.2941 44.2212C71.1917 44.2636 71.082 44.2854 70.9711 44.2854ZM51.9058 42.5974H70.127V36.4087H51.9058V42.5974Z" fill="#2F54EB"/>
<path d="M18.815 77.6432C19.421 77.6432 19.9122 77.1508 19.9122 76.5433C19.9122 75.9358 19.421 75.4434 18.815 75.4434C18.209 75.4434 17.7178 75.9358 17.7178 76.5433C17.7178 77.1508 18.209 77.6432 18.815 77.6432Z" fill="#2F54EB"/>
<path d="M61.7237 11.9904H60.3071C60.1812 11.9904 60.1182 12.0534 60.1182 12.1793V19.5927H53.0832C52.9572 19.5927 52.8943 19.6556 52.8943 19.7816V21.1981C52.8943 21.324 52.9572 21.387 53.0832 21.387H60.1182V28.8003C60.1182 28.9263 60.1812 28.9892 60.3071 28.9892H61.7237C61.8496 28.9892 61.9125 28.9263 61.9125 28.8003V21.387H68.9487C69.0746 21.387 69.1376 21.324 69.1376 21.1981V19.7816C69.1376 19.6556 69.0746 19.5927 68.9487 19.5927H61.9125V12.1793C61.9125 12.0534 61.8496 11.9904 61.7237 11.9904Z" fill="#87E8DE"/>
</g>
<defs>
<clipPath id="clip0_335_18872">
<rect width="79" height="79" fill="white" transform="translate(0.5 0.332031)"/>
</clipPath>
</defs>
</svg>
