<svg width="64" height="65" viewBox="0 0 64 65" fill="none" xmlns="http://www.w3.org/2000/svg">
<g clipPath="url(#clip0_335_18867)">
<path d="M32 36.332C35.1645 36.332 38.2579 35.3937 40.8891 33.6356C43.5203 31.8774 45.5711 29.3786 46.7821 26.455C47.9931 23.5314 48.3099 20.3143 47.6926 17.2106C47.0752 14.1069 45.5513 11.256 43.3137 9.01833C41.0761 6.78069 38.2251 5.25684 35.1214 4.63947C32.0177 4.02211 28.8007 4.33896 25.8771 5.54997C22.9534 6.76097 20.4546 8.81173 18.6965 11.4429C16.9384 14.0741 16 17.1675 16 20.332C16.0045 24.5741 17.6917 28.6412 20.6913 31.6408C23.6909 34.6404 27.7579 36.3275 32 36.332ZM32 8.33204C34.3734 8.33204 36.6934 9.03583 38.6668 10.3544C40.6402 11.673 42.1783 13.5471 43.0865 15.7398C43.9948 17.9326 44.2324 20.3454 43.7694 22.6731C43.3064 25.0009 42.1635 27.1391 40.4853 28.8173C38.807 30.4956 36.6688 31.6384 34.3411 32.1015C32.0133 32.5645 29.6005 32.3268 27.4078 31.4186C25.2151 30.5103 23.3409 28.9723 22.0224 26.9989C20.7038 25.0255 20 22.7054 20 20.332C20.0035 17.1505 21.2689 14.1003 23.5185 11.8506C25.7682 9.60091 28.8185 8.33551 32 8.33204ZM16.2031 46.4668C21.3194 44.9092 26.6538 44.1883 32 44.332C33.8716 44.332 35.6228 44.4138 37.3098 44.5378L40.967 40.8806C37.9929 40.5051 34.9977 40.3218 32 40.332C26.2124 40.186 20.4394 40.9802 14.9062 42.6836C11.6851 43.8312 8.90262 45.9561 6.9474 48.7615C4.99218 51.5668 3.96176 54.9127 3.99999 58.332C3.99984 58.5947 4.05146 58.8549 4.15192 59.0976C4.25237 59.3403 4.39969 59.5608 4.58544 59.7466C4.77118 59.9323 4.99172 60.0797 5.23444 60.1801C5.47716 60.2806 5.7373 60.3322 5.99999 60.332H28V56.332H8.15235C8.46723 54.1099 9.38375 52.0162 10.8028 50.2773C12.2218 48.5385 14.0892 47.2208 16.2031 46.4668ZM55.54 55.2764C55.6271 55.6353 55.7909 55.9626 55.8476 56.332H54.4843L50.4843 60.332H58C58.2627 60.3322 58.5228 60.2806 58.7655 60.1801C59.0083 60.0797 59.2288 59.9323 59.4145 59.7466C59.6003 59.5608 59.7476 59.3403 59.8481 59.0976C59.9485 58.8549 60.0001 58.5947 60 58.332C59.988 56.1811 59.5663 54.0521 58.7573 52.0591L55.54 55.2764Z" fill="#2F54EB"/>
<path d="M62.9197 38.2881L57.9476 33.316C57.2987 32.7065 56.4483 32.3567 55.5583 32.3333C54.6683 32.3099 53.8008 32.6144 53.1207 33.189L36.789 49.5206C36.2025 50.1121 35.8373 50.8874 35.7547 51.7163L34.9744 59.2833C34.95 59.5491 34.9845 59.817 35.0754 60.0679C35.1664 60.3188 35.3116 60.5466 35.5007 60.735C35.6702 60.9032 35.8713 61.0362 36.0924 61.1265C36.3135 61.2168 36.5502 61.2626 36.789 61.2612H36.9524L44.5194 60.5717C45.3483 60.4891 46.1235 60.1239 46.7151 59.5373L63.0467 43.2057C63.6806 42.5361 64.0231 41.6424 63.9993 40.7206C63.9755 39.7989 63.5873 38.9241 62.9197 38.2881ZM44.1927 56.9424L38.7488 57.4505L39.2388 52.0066L49.4914 41.881L54.3909 46.7805L44.1927 56.9424ZM56.7499 44.3489L51.8867 39.4857L55.4253 35.8565L60.3792 40.8104L56.7499 44.3489Z" fill="#16D2BF"/>
</g>
<defs>
<clipPath id="clip0_335_18867">
<rect width="64" height="64" fill="white" transform="translate(0 0.332031)"/>
</clipPath>
</defs>
</svg>
