<svg width="72" height="88" viewBox="0 0 72 88" fill="none" xmlns="http://www.w3.org/2000/svg">
<path d="M0.00585938 12.5332C0.00585938 23.6395 0.00585938 34.7457 0.00585938 45.852C0.00585938 56.079 0.00585938 66.306 0.00840136 76.533C0.00585938 66.306 0.00840136 56.079 0.00840136 45.852C0.00840136 34.7457 0.00840136 23.6395 0.00840136 12.5332H0.00585938Z" fill="#2F54EB"/>
<path d="M21.8566 10.4988C20.5601 10.4988 20.0314 11.0113 20.0314 12.2749C20.0289 14.9528 20.0314 17.6283 20.0314 20.3063C20.0314 21.5649 20.5678 22.0899 21.8515 22.0899C24.3909 22.0899 26.9304 22.1025 29.4698 22.0798C29.9858 22.0748 30.1587 22.213 30.1536 22.7456C30.1256 25.2753 30.1383 27.8076 30.1434 30.3373C30.1434 31.5683 30.6747 32.0858 31.9279 32.0858C34.6351 32.0883 37.3449 32.0883 40.0521 32.0858C41.3561 32.0858 41.8645 31.5884 41.8645 30.3072C41.8671 27.7975 41.8823 25.2879 41.8518 22.7782C41.8442 22.218 42.012 22.0698 42.5661 22.0748C45.1056 22.1025 47.645 22.0899 50.1845 22.0874C51.4377 22.0874 51.9715 21.5649 51.974 20.3439C51.9766 19.005 51.974 17.666 51.974 16.3295C51.974 14.9905 51.9791 13.6515 51.974 12.3151C51.9689 10.9937 51.4656 10.4988 50.1311 10.4988C47.6781 10.4988 45.2225 10.5063 42.7695 10.4988C41.8671 10.4988 41.8671 10.4837 41.8671 9.62204C41.8671 7.1551 41.8671 4.68565 41.8671 2.21871C41.8671 1.02292 41.3384 0.502901 40.1233 0.502901C37.3932 0.500389 34.6631 0.497876 31.9355 0.502901C30.6518 0.502901 30.146 1.01538 30.146 2.30412C30.1434 4.81377 30.1307 7.32342 30.1561 9.83306C30.1612 10.3531 30.0062 10.5139 29.4774 10.5088C26.938 10.4837 24.3985 10.4963 21.8591 10.4988H21.8566ZM30.8043 12.5311C31.8872 12.5311 32.2024 12.2196 32.2024 11.1519C32.2024 8.51669 32.2202 5.88144 32.1897 3.24618C32.1846 2.68094 32.3677 2.54026 32.9142 2.5478C34.9885 2.57543 37.0602 2.57543 39.1344 2.5478C39.6632 2.54026 39.8208 2.70355 39.8157 3.22357C39.7928 5.85883 39.803 8.49408 39.8081 11.1293C39.8081 12.2272 40.0979 12.5186 41.1858 12.5211C43.893 12.5286 46.6028 12.5311 49.31 12.5286C49.6608 12.5286 49.9176 12.5387 49.9125 13.0084C49.8947 15.2468 49.9023 17.4826 49.8972 19.7209C49.8972 19.8013 49.8642 19.8817 49.8286 20.0576C49.5896 20.0576 49.3456 20.0576 49.099 20.0576C46.4554 20.0576 43.8092 20.0576 41.1655 20.0576C40.1258 20.0576 39.8081 20.3741 39.8081 21.4116C39.8055 24.0469 39.7954 26.6821 39.8182 29.3174C39.8233 29.8474 39.7039 30.0484 39.1192 30.0409C37.0246 30.0057 34.93 30.0107 32.8354 30.0359C32.3245 30.0409 32.1897 29.8726 32.1948 29.3877C32.2152 26.7726 32.205 24.1599 32.205 21.5448C32.205 20.3314 31.9355 20.0576 30.7306 20.0576C28.1276 20.0576 25.5272 20.0576 22.9242 20.0576H22.1006C22.1006 19.7134 22.1006 19.4471 22.1006 19.1808C22.1006 17.1736 22.1184 15.1664 22.0955 13.1592C22.0904 12.6643 22.2455 12.5186 22.7462 12.5211C25.4331 12.5437 28.12 12.5336 30.8069 12.5311H30.8043Z" fill="#16D2BF"/>
<path d="M62.2213 38.9712C62.056 38.9486 61.8832 38.9511 61.7154 38.9511C50.3095 38.9511 38.9036 38.9511 27.5003 38.9511C27.1622 38.9511 26.8165 38.936 26.4885 38.9913C25.9395 39.0842 25.6268 39.441 25.6319 39.9962C25.637 40.5539 25.97 40.8829 26.514 40.9834C26.7199 41.0211 26.9359 41.001 27.1469 41.001C32.902 41.001 38.657 41.001 44.4146 41.001C49.852 41.001 55.2918 41.001 60.7291 41.001C61.1943 41.001 61.6595 41.0086 62.1247 40.991C62.6712 40.9734 63.1059 40.5639 63.1415 40.0615C63.1796 39.5063 62.8059 39.0566 62.2238 38.9712H62.2213Z" fill="#2F54EB"/>
<path d="M62.2817 73.1388C62.8333 73.0358 63.1256 72.6816 63.146 72.1339C63.1638 71.6415 62.7774 71.217 62.2588 71.1517C62.03 71.1215 61.7936 71.1366 61.5623 71.1366C55.853 71.1366 50.1437 71.1366 44.4369 71.1366C38.6234 71.1366 32.8073 71.1366 26.9938 71.1366C26.0838 71.1366 25.6161 71.4883 25.6211 72.1565C25.6262 72.8197 26.0939 73.1589 27.0141 73.1589C28.2826 73.1589 29.551 73.1463 30.8195 73.1463C41.1171 73.1488 51.4147 73.1564 61.7097 73.1589C61.9004 73.1589 62.0936 73.1739 62.2791 73.1388H62.2817Z" fill="#2F54EB"/>
<path d="M61.5851 55.0416C50.1004 55.0416 38.6182 55.0416 27.1335 55.0416C26.9225 55.0416 26.7065 55.0315 26.5006 55.0667C25.9439 55.1596 25.649 55.5113 25.6287 56.059C25.6083 56.579 26.0125 57.0111 26.5565 57.0689C26.7446 57.089 26.9378 57.0814 27.1259 57.0814C32.8784 57.0814 38.6309 57.0814 44.3835 57.0814C50.1156 57.0814 55.8453 57.0814 61.5775 57.0814C62.6578 57.0814 63.151 56.7624 63.1484 56.064C63.1484 55.3531 62.6705 55.0391 61.5851 55.0391V55.0416Z" fill="#2F54EB"/>
<path d="M50.4107 76.5363C43.133 76.5363 35.8578 76.5338 28.5801 76.5363C27.9039 76.5363 27.2227 76.5237 26.5516 76.584C25.9441 76.6393 25.578 77.109 25.6263 77.6542C25.6721 78.1742 26.0712 78.5259 26.6609 78.5561C26.8287 78.5661 26.999 78.5586 27.1693 78.5586C31.0408 78.5586 34.9122 78.5586 38.7811 78.5586C42.6526 78.5586 46.524 78.5586 50.3929 78.5586C50.5836 78.5586 50.7768 78.5711 50.9623 78.551C51.4936 78.4882 51.8139 78.1893 51.8647 77.6617C51.9156 77.1065 51.641 76.7347 51.1021 76.5865C50.8835 76.5262 50.642 76.5388 50.4107 76.5388V76.5363Z" fill="#2F54EB"/>
<path d="M61.8396 60.4732C58.4104 60.4581 54.9838 60.4631 51.5547 60.4657C49.1627 60.4657 46.7732 60.4657 44.3812 60.4657C43.2805 60.4657 42.1798 60.4581 41.0792 60.4732C40.4488 60.4807 40.07 60.8525 40.0497 61.4303C40.0293 62.0081 40.3827 62.4101 40.9927 62.4829C41.1605 62.503 41.3308 62.498 41.4986 62.498C48.1866 62.498 54.872 62.498 61.56 62.498C61.8142 62.498 62.1217 62.5633 62.3073 62.4478C62.62 62.2543 62.9987 61.973 63.0801 61.6614C63.1538 61.3801 62.9428 60.9329 62.714 60.6943C62.5361 60.5084 62.137 60.4732 61.837 60.4732H61.8396Z" fill="#2F54EB"/>
<path d="M61.8392 60.4741C58.4101 60.4588 54.9835 60.4639 51.5544 60.4639C54.9835 60.4639 58.4101 60.4588 61.8392 60.4715V60.4741Z" fill="#2F54EB"/>
<path d="M45.7716 44.3878C45.5632 44.3652 45.3497 44.3752 45.1387 44.3752C40.4233 44.3752 35.7054 44.3752 30.99 44.3752C29.6783 44.3752 28.3666 44.3752 27.055 44.3752C26.1068 44.3752 25.6162 44.737 25.6264 45.4127C25.6365 46.0709 26.1068 46.4101 27.0194 46.4151C27.1897 46.4151 27.3575 46.4151 27.5278 46.4151C30.4053 46.4151 33.2803 46.4151 36.1578 46.4151C39.1396 46.4151 42.1213 46.4151 45.1056 46.4151C45.3166 46.4151 45.5301 46.4251 45.7386 46.405C46.341 46.3498 46.7274 45.9378 46.7198 45.3801C46.7122 44.845 46.3436 44.4506 45.7742 44.3878H45.7716Z" fill="#2F54EB"/>
<path d="M13.4302 46.957C13.964 47.472 14.4953 47.4343 15.052 46.9143C15.4816 46.5123 15.8908 46.0903 16.3102 45.6758C18.2422 43.7741 20.1766 41.8749 22.1034 39.9656C22.6652 39.4104 22.6957 38.7523 22.2178 38.3151C21.7704 37.9032 21.201 37.971 20.657 38.5061C19.8004 39.3451 18.9412 40.1792 18.0947 41.0258C16.8339 42.2869 15.5807 43.5555 14.2436 44.902C12.9879 43.6485 11.8541 42.4979 10.7001 41.3649C10.212 40.8851 9.59177 40.87 9.17743 41.2795C8.74783 41.7041 8.73512 42.3019 9.2181 42.7893C10.6086 44.1911 12.0092 45.5853 13.4302 46.957Z" fill="#2F54EB"/>
<path d="M22.2579 54.4439C21.8511 54.0444 21.2207 54.0721 20.7225 54.5117C20.6437 54.582 20.57 54.6549 20.4937 54.7302C18.7448 56.4611 16.9883 58.187 15.2521 59.9304C14.9293 60.2545 14.6853 60.6539 14.3828 61.0483C14.0142 60.7042 13.8464 60.5509 13.6837 60.3901C12.6797 59.4004 11.6807 58.4081 10.674 57.4208C10.3258 57.0791 9.86313 56.9183 9.46912 57.2022C9.18696 57.4057 8.94293 57.8102 8.9048 58.1468C8.8743 58.4106 9.13358 58.7623 9.35473 58.9884C10.6206 60.2796 11.9145 61.5432 13.1982 62.8194C13.9812 63.5957 14.4336 63.6032 15.2267 62.8194C16.9654 61.1086 18.6965 59.3903 20.4327 57.677C21.0174 57.1017 21.6122 56.539 22.1867 55.9537C22.6595 55.4688 22.6773 54.8533 22.2604 54.4439H22.2579Z" fill="#2F54EB"/>
<path d="M20.7611 70.5628C20.6187 70.6859 20.4891 70.8241 20.3544 70.9573C18.486 72.8037 16.6176 74.6501 14.7493 76.4941C14.5891 76.6523 14.4188 76.8005 14.2282 76.9764C14.0502 76.8156 13.9079 76.6975 13.7757 76.5669C12.7894 75.5922 11.8056 74.615 10.8168 73.6428C10.2271 73.0624 9.61191 73.0022 9.15944 73.4694C8.71459 73.9291 8.77051 74.5145 9.32975 75.0697C10.6414 76.371 11.9582 77.6723 13.2775 78.966C13.9816 79.6569 14.4646 79.6644 15.1687 78.9761C16.4473 77.7275 17.7132 76.4689 18.9817 75.2129C20.0569 74.1502 21.1398 73.0901 22.2049 72.0174C22.6701 71.5501 22.6676 70.9246 22.2405 70.5101C21.8363 70.1182 21.2466 70.1358 20.7611 70.5603V70.5628Z" fill="#2F54EB"/>
<path d="M61.906 44.3807C58.9064 44.3757 55.9094 44.3757 52.9099 44.3807C52.1041 44.3807 51.6643 44.75 51.6592 45.3906C51.6541 46.0287 52.1092 46.4156 52.8946 46.4181C54.3944 46.4231 55.8942 46.4181 57.3914 46.4181C58.8912 46.4181 60.3909 46.4231 61.8882 46.4181C62.6838 46.4156 63.1414 46.0413 63.149 45.4107C63.1566 44.7852 62.6889 44.3857 61.906 44.3832V44.3807Z" fill="#2F54EB"/>
<path d="M26.8111 62.493C29.2413 62.503 31.6714 62.503 34.1016 62.493C34.8413 62.4905 35.2836 62.0885 35.2861 61.4756C35.2861 60.8526 34.854 60.4732 34.1066 60.4682C32.9017 60.4607 31.6968 60.4682 30.4945 60.4682C29.2692 60.4682 28.044 60.4632 26.8188 60.4682C26.0816 60.4732 25.6266 60.8626 25.624 61.4731C25.624 62.076 26.0765 62.4905 26.8137 62.4955L26.8111 62.493Z" fill="#2F54EB"/>
<path d="M57.6681 78.5512C58.4053 78.5637 59.145 78.5537 59.8822 78.5537C60.6193 78.5537 61.3591 78.5662 62.0962 78.5537C62.7114 78.5411 63.1181 78.1593 63.1486 77.6091C63.1766 77.0765 62.78 76.5741 62.1954 76.5615C60.6575 76.5264 59.117 76.5264 57.5766 76.5615C56.9538 76.5741 56.5471 77.074 56.5878 77.6392C56.6259 78.1693 57.0555 78.5461 57.6681 78.5562V78.5512Z" fill="#2F54EB"/>
<path d="M72 62.6276C72 45.874 72 29.1204 72 12.3668C72 7.98061 68.8378 4.5063 64.43 4.19479C63.4106 4.12194 62.3862 4.1144 61.3618 4.12194V4.10938H50.7312V4.15208C50.6956 4.15208 50.6575 4.15208 50.6219 4.15208C50.0957 4.14957 49.567 4.13198 49.0408 4.15208C48.4053 4.17972 47.9757 4.60176 47.968 5.16197C47.9604 5.71465 48.3875 6.17939 49.0153 6.19698C49.7932 6.21959 50.5736 6.21959 51.3514 6.20954H60.2052C61.3414 6.20954 62.4752 6.20954 63.6114 6.20954C67.3329 6.21959 69.9308 8.77697 69.9334 12.4422C69.9384 20.2651 69.9334 28.0879 69.9334 35.9083C69.9334 50.318 69.9334 64.7303 69.9308 79.1401C69.9308 79.5772 69.9232 80.0218 69.8444 80.4514C69.2953 83.4359 66.8245 85.4506 63.675 85.4531C55.8889 85.4632 48.1028 85.4556 40.3141 85.4556C29.7776 85.4556 19.2385 85.3953 8.70195 85.4883C4.7822 85.5235 1.99364 82.5465 2.03686 78.9341C2.14108 70.1315 2.05719 61.3238 2.05973 52.5187C2.05973 39.1741 2.06736 25.8295 2.07499 12.4874C2.07499 12.0503 2.09024 11.6057 2.16904 11.1761C2.71811 8.25695 5.1635 6.21959 8.16813 6.21205C13.6487 6.19698 19.1292 6.20703 24.6097 6.20452C25.4918 6.20452 25.99 5.82769 25.99 5.17453C25.99 4.51383 25.535 4.15962 24.6148 4.15711C19.241 4.14706 13.8647 4.14203 8.49096 4.14455C3.52138 4.15711 0.00835033 7.62891 0.00580834 12.5326C0.00580834 23.6389 0.00580834 34.7452 0.00580834 45.8514C0.00580834 56.0784 0.00580834 66.3054 0.00580834 76.5324C0.00580834 77.7232 -0.0246955 78.919 0.0541061 80.1072C0.326099 84.2197 3.82896 87.4402 8.09187 87.4804C11.582 87.5156 15.0747 87.4905 18.5649 87.488C26.1603 87.4829 33.7583 87.4704 41.3538 87.4704C48.7815 87.4704 56.2092 87.4955 63.6343 87.4855C68.4997 87.4779 71.9949 83.991 71.9975 79.1903C71.9975 73.6686 71.9975 68.1468 71.9975 62.6251L72 62.6276Z" fill="#2F54EB"/>
</svg>
