<svg width="76" height="80" viewBox="0 0 76 80" fill="none" xmlns="http://www.w3.org/2000/svg">
<mask id="path-1-inside-1_335_18858" fill="white">
<path d="M55.255 79.552C55.085 79.552 54.915 79.552 54.66 79.552C54.575 79.552 54.49 79.552 54.405 79.552H2.215C1.28 79.552 0.514999 78.787 0.514999 77.852V7.21703C0.514999 3.39203 3.575 0.332031 7.4 0.332031H60.78C60.865 0.332031 60.95 0.332031 61.035 0.332031H67.07C71.66 0.332031 75.485 4.07203 75.485 8.74703V41.982C75.485 42.917 74.72 43.682 73.785 43.682H56.105V48.017C64.435 48.442 71.065 55.327 71.065 63.742C71.065 72.497 63.925 79.552 55.255 79.552ZM54.575 76.152C54.83 76.152 55 76.152 55.255 76.152C62.14 76.152 67.665 70.542 67.665 63.742C67.665 56.942 62.055 51.332 55.255 51.332C55 51.332 54.83 51.332 54.575 51.332C54.575 51.332 54.575 51.332 54.49 51.332C48.03 51.757 42.93 57.027 42.845 63.487C42.845 63.572 42.845 63.657 42.845 63.742C42.76 70.287 47.945 75.812 54.575 76.152ZM3.915 76.152H45.48C41.91 73.347 39.53 68.927 39.445 64.082C39.445 63.997 39.445 63.827 39.445 63.742C39.445 55.922 45.225 49.292 52.79 48.102V8.66203C52.79 6.79203 53.385 5.09203 54.405 3.64703H7.4C5.445 3.64703 3.83 5.26203 3.83 7.13203V76.152H3.915ZM56.105 40.197H72.085V8.66203C72.085 5.94203 69.875 3.64703 67.07 3.64703H61.205H61.12C58.4 3.64703 56.105 5.85703 56.105 8.66203V40.197ZM29.415 63.317H8.76C7.825 63.317 7.06 62.552 7.06 61.617C7.06 60.682 7.825 59.917 8.76 59.917H29.415C30.35 59.917 31.115 60.682 31.115 61.617C31.115 62.552 30.35 63.317 29.415 63.317ZM36.13 54.817H8.76C7.825 54.817 7.06 54.052 7.06 53.117C7.06 52.182 7.825 51.417 8.76 51.417H36.13C37.065 51.417 37.83 52.182 37.83 53.117C37.83 54.052 37.065 54.817 36.13 54.817ZM30.265 46.657H8.76C7.825 46.657 7.06 45.892 7.06 44.957C7.06 44.022 7.825 43.257 8.76 43.257H30.265C31.2 43.257 31.965 44.022 31.965 44.957C31.965 45.892 31.2 46.657 30.265 46.657ZM47.69 33.822H8.675C6.89 33.822 5.445 32.377 5.445 30.592V24.812C5.445 23.027 6.89 21.582 8.675 21.582H47.69C49.475 21.582 50.92 23.027 50.92 24.812V30.592C51.005 32.377 49.475 33.822 47.69 33.822ZM8.845 30.422H47.605V24.897H8.845V30.422ZM33.835 17.502H7.145C6.21 17.502 5.445 16.737 5.445 15.802C5.445 14.867 6.21 14.102 7.145 14.102H33.835C34.77 14.102 35.535 14.867 35.535 15.802C35.535 16.737 34.77 17.502 33.835 17.502ZM22.955 11.297H7.145C6.21 11.297 5.445 10.532 5.445 9.59703C5.445 8.66203 6.21 7.89703 7.145 7.89703H22.955C23.89 7.89703 24.655 8.66203 24.655 9.59703C24.655 10.532 23.89 11.297 22.955 11.297Z"/>
</mask>
<path d="M55.255 79.552C55.085 79.552 54.915 79.552 54.66 79.552C54.575 79.552 54.49 79.552 54.405 79.552H2.215C1.28 79.552 0.514999 78.787 0.514999 77.852V7.21703C0.514999 3.39203 3.575 0.332031 7.4 0.332031H60.78C60.865 0.332031 60.95 0.332031 61.035 0.332031H67.07C71.66 0.332031 75.485 4.07203 75.485 8.74703V41.982C75.485 42.917 74.72 43.682 73.785 43.682H56.105V48.017C64.435 48.442 71.065 55.327 71.065 63.742C71.065 72.497 63.925 79.552 55.255 79.552ZM54.575 76.152C54.83 76.152 55 76.152 55.255 76.152C62.14 76.152 67.665 70.542 67.665 63.742C67.665 56.942 62.055 51.332 55.255 51.332C55 51.332 54.83 51.332 54.575 51.332C54.575 51.332 54.575 51.332 54.49 51.332C48.03 51.757 42.93 57.027 42.845 63.487C42.845 63.572 42.845 63.657 42.845 63.742C42.76 70.287 47.945 75.812 54.575 76.152ZM3.915 76.152H45.48C41.91 73.347 39.53 68.927 39.445 64.082C39.445 63.997 39.445 63.827 39.445 63.742C39.445 55.922 45.225 49.292 52.79 48.102V8.66203C52.79 6.79203 53.385 5.09203 54.405 3.64703H7.4C5.445 3.64703 3.83 5.26203 3.83 7.13203V76.152H3.915ZM56.105 40.197H72.085V8.66203C72.085 5.94203 69.875 3.64703 67.07 3.64703H61.205H61.12C58.4 3.64703 56.105 5.85703 56.105 8.66203V40.197ZM29.415 63.317H8.76C7.825 63.317 7.06 62.552 7.06 61.617C7.06 60.682 7.825 59.917 8.76 59.917H29.415C30.35 59.917 31.115 60.682 31.115 61.617C31.115 62.552 30.35 63.317 29.415 63.317ZM36.13 54.817H8.76C7.825 54.817 7.06 54.052 7.06 53.117C7.06 52.182 7.825 51.417 8.76 51.417H36.13C37.065 51.417 37.83 52.182 37.83 53.117C37.83 54.052 37.065 54.817 36.13 54.817ZM30.265 46.657H8.76C7.825 46.657 7.06 45.892 7.06 44.957C7.06 44.022 7.825 43.257 8.76 43.257H30.265C31.2 43.257 31.965 44.022 31.965 44.957C31.965 45.892 31.2 46.657 30.265 46.657ZM47.69 33.822H8.675C6.89 33.822 5.445 32.377 5.445 30.592V24.812C5.445 23.027 6.89 21.582 8.675 21.582H47.69C49.475 21.582 50.92 23.027 50.92 24.812V30.592C51.005 32.377 49.475 33.822 47.69 33.822ZM8.845 30.422H47.605V24.897H8.845V30.422ZM33.835 17.502H7.145C6.21 17.502 5.445 16.737 5.445 15.802C5.445 14.867 6.21 14.102 7.145 14.102H33.835C34.77 14.102 35.535 14.867 35.535 15.802C35.535 16.737 34.77 17.502 33.835 17.502ZM22.955 11.297H7.145C6.21 11.297 5.445 10.532 5.445 9.59703C5.445 8.66203 6.21 7.89703 7.145 7.89703H22.955C23.89 7.89703 24.655 8.66203 24.655 9.59703C24.655 10.532 23.89 11.297 22.955 11.297Z" fill="#2F54EB"/>
</svg>
